<?xml version="1.0" encoding="UTF-8"?>
<svg version="1.1" viewBox="0 0 2048 858" width="1280" height="1280" xmlns="http://www.w3.org/2000/svg">
<path transform="translate(0)" d="m0 0h2048v858h-2048z" fill="#fff"/>
<path transform="translate(0)" d="m0 0h2048v858h-2048zm266 25-25 3-26 6-23 8-25 12-20 13-14 11-12 11-8 7-7 8-7 7-11 14-14 19-13 21-13 24-10 23-7 23-4 22-1 12v15l3 21 5 16 7 16 8 13 9 12 13 15 11 12 11 10 19 13 27 18 13 10 4 4-1 4-6 11-12 17-11 14-11 13-9 11-13 16-14 20-12 22-8 16-8 19-6 19-3 14-1 8v23l3 15 6 23 9 19 9 12 6 7 8 7 12 12 13 10 19 12 16 8 39 17 16 6 26 6 32 6 21 2h47l22-3 21-5 50-17 18-8 27-16 16-10 13-10 11-9 26-24 7-8 10-10 7-8 14-15 9-10 9-9 7-8 14-15 7-8 20-20 8-7 10-7 24-13 19-8 25-7 54-13 59-13 44-8 40-6 45-5 107-7 51-2h55l50 2 40 3 42 5 37 6 36 8 31 9 21 8 19 10 13 10 7 7 7 8 5 8 15 42 9 20 9 17 12 18 11 14 11 12 3 4h2v2l8 7 13 12 20 15 19 12 19 10 25 10 24 7 26 5 31 3h23l31-3 29-6 26-8 23-10 17-9 17-11 16-12 14-12 13-12 14-15 9-11 13-17 10-15 9-16 9-19 6-19 3-15 1-8v-22l-4-20-6-16-7-14-11-16-13-15-12-14-13-12-16-12-25-17-12-9-13-11-1-3 7-11 11-13 9-11 15-15 7-8 8-8 9-11 10-12 11-17 12-23 7-16 6-21 2-12v-25l-4-17-5-13-9-15-13-15-17-17-11-9-17-14-16-12-21-13-15-8-36-15-36-12-25-7-24-4-11-1h-52l-28 3-29 5-36 9-22 8-23 12-15 10-16 12-15 13-12 11-8 7-7 7-8 7-15 14-8 7-16 15-12 11-14 11-11 8-14 7-30 9-36 9-53 11-56 9-56 7-63 6-23 2-19 1-82 2-79 3-55 3h-44l-72-4-31-2-36-6-47-9-13-5-13-7-9-7h-2l-2-4-8-9-8-14-5-12-7-24-8-16-9-16-12-17-9-11-12-13-15-14-17-13-13-9-18-11-21-11-20-8-18-6-25-6-21-3-10-1z" fill="#FCFCFC"/>
<path transform="translate(266,25)" d="m0 0h37l25 3 24 5 20 6 20 8 23 11 18 11 16 11 14 11 10 9 8 7 8 8 9 11 10 13 12 19 8 15 6 16 6 21 9 17 8 10 4 4v2l4 2 14 9 13 6 16 4 65 12 19 2 77 4 15 1h44l55-3 79-3 82-2 30-2 65-6 51-6 47-7 39-7 42-9 35-9 27-8 14-7 11-8 11-9 20-18 15-14 12-11 10-9 13-12 14-13 8-7 13-11 19-14 15-9 19-10 22-8 36-9 36-6 21-2h52l25 3 25 6 35 11 21 8 26 11 22 12 18 12 13 10 17 14 14 12 17 17 11 14 9 16 6 20 1 6v25l-4 20-6 18-12 25-8 14-12 17-12 14-11 12-16 17-7 7-9 11-10 12-7 11 2 4 14 12 20 14 19 13 14 11 13 12 24 28 10 15 8 16 6 17 3 17v22l-3 19-6 20-8 18-9 17-8 12-10 14-13 16-11 12-9 10-14 13-11 9-19 14-24 14-19 9-25 9-24 6-23 4-24 2h-23l-31-3-26-5-26-8-25-10-19-10-21-14-13-10-14-12-8-8-2-1v-2h-2l-7-8-9-10-12-16-11-18-11-21-9-23-12-33-6-8-14-15-14-10-23-11-30-10-32-8-36-7-43-6-43-4-35-2-31-1h-55l-51 2-107 7-45 5-46 7-38 7-59 13-66 16-21 7-21 10-19 11-20 18-19 19-7 8-11 12-12 13-8 8-7 8-14 15-9 10-9 9-7 8-10 9-13 12-17 13-15 10-29 17-16 8-49 17-22 6-17 3-10 1h-47l-21-2-32-6-26-6-28-11-27-12-16-8-16-10-13-10-10-9-16-16-8-9-8-14-5-11-8-31-1-7v-23l3-18 6-20 8-20 8-16 10-19 10-15 9-12 13-16 11-13 8-10 13-17 12-18 4-7-1-4-9-8-17-12-17-11-16-11-11-9-11-11-9-11-9-10-9-13-9-16-7-18-4-19-1-10v-15l2-19 5-22 7-21 11-24 14-25 12-18 14-19 12-14 9-9 5-6 8-7 10-9 16-12 20-12 21-10 27-9 22-5zm-6 22-18 3-27 8-22 9-18 10-17 13-13 12-11 12-11 14-11 13-14 19-12 22-5 14-7 22-7 26-3 19v19l2 15 5 17 8 16 10 16 12 14 18 18 14 11 17 12 13 8h7l5-3 7-11 5-15 2-20v-10l-2-14-2-10 9 5 8 11 4 9 3 15v27l-3 19-7 25-10 26-12 25-7 13-13 19-8 10-14 14-11 16-7 10-11 16-10 15-10 19-5 14-3 15v25l3 15 5 14 8 15 9 12 11 12 9 8 15 10 25 12 43 15 16 5 28 7 35 5 10 1h23l19-2 16-3 20-7 28-11 20-10 19-12 13-10 10-8 13-11 7-7 8-7 17-17 7-8 15-16 7-8 12-14 9-11 13-16 11-12 9-9 13-9 16-9 3-2v-2l-39 2h-28l4-4 11-4 37-10 38-9 43-9 72-13 49-8 58-11 55-8 30-3 63-1 52-2 69-5 22-1h83l48 3 42 4 36 5 35 7 21 6 20 7 16 8 14 9 14 11 16 16 11 14 13 18 13 22 12 22 8 16 12 23 10 17 11 16 8 10 9 10 13 13 15 11 16 9 17 7 21 6 27 4h41l23-3 24-6 20-7 25-12 15-9 14-10 11-9 10-9 14-14 7-8 13-15 12-16 11-17 9-17 6-15 4-16 1-6v-27l-5-21-9-19-10-15-7-9-9-10-15-15-11-9-20-15-14-9-7-1-7 3-4 5-6 16-3 20v13l3 20-5-5-10-13-6-10-3-10v-23l3-18 6-21 9-22 8-15 12-16 14-15 10-10 9-11 10-13 9-13 10-15 8-16 10-23 4-13 2-12v-15l-1-20-3-16-5-14-8-14-11-14-12-12-15-11-15-9-25-12-19-7-15-6-19-7-40-12-15-3-35-3h-16l-23 2-29 8-24 8-23 10-16 9-15 10-14 10-11 9-13 11-10 9-12 11-17 16-19 19-7 8-19 19-8 6v2l39 1 18 2-2 4-25 6-48 9-54 8-48 6-42 8-33 6-62 9-50 6-65 6-19 1-83 2-33 2-57 4-60 2h-35l-40-1-58-3-39-4-30-5-24-6-19-7-17-9-16-12-12-11-13-13-7-10-5-10-6-21-6-25-5-12-6-11-9-12-16-16-14-11-13-11-13-10-14-10-18-10-16-7-26-8-20-4-27-4z" fill="#4A2D00"/>
<path transform="translate(1873,453)" d="m0 0 9 2 16 11 17 13 14 12 18 18 10 13 11 18 7 15 5 21v27l-4 18-5 14-8 17-12 19-12 16-11 13-18 20-14 14-14 11-14 10-17 10-23 11-27 9-23 5-17 2h-41l-27-4-21-6-17-7-16-9-12-9-10-9-13-13-13-17-11-17-12-22-9-17-8-16-12-22-13-21-14-19-12-14-14-14-16-12-17-10-20-8-22-7-32-7-31-5-46-5-41-3-19-1h-83l-52 3-39 3-52 2-63 1-38 4-47 7-75 14-49 8-70 13-50 11-43 11-16 4-2-1 1-4 12-18 9-13 7-6 10-5 19-5 23-5 21-2 57-4 54-6 43-6 33-3 45-4 54-6 83-6 177-11h49l92 3 49 2 25 2 12 4 12 7 13 10 12 11 9 9 10 14 9 16 14 22 7 10 11 14 9 11 16 25 9 13 13 15 13 13 10 13 14 15 14 11 10 7 19 10 21 8 26 7 24 4h30l19-3 25-6 23-7 16-7 13-7 20-14 17-12 12-11 10-12 10-17 6-15 4-14 2-14v-22l-1-22-3-19-5-17-9-19-12-17-12-13-13-11-15-10-1-5-2-1z" fill="#E7D08E"/>
<path transform="translate(131,550)" d="m0 0 2 1 5-1-3 9-6 14-6 21-3 20v30l4 23 6 20 8 18 11 18 11 13 9 10 10 9 14 10 14 8 15 7 19 6 22 4 23 1 21-2 25-6 16-6 34-17 17-10 16-11 13-10 14-12 10-9 16-15 16-17 12-13 9-11 9-10 11-14 13-17 16-23 3-2h27l39-2-1 3-15 8-12 8-12 11-9 9-18 22-8 10-9 10-7 8-18 20-15 16-14 14-8 7-11 10-14 11-18 13-19 11-21 10-29 11-16 5-19 3-12 1h-23l-33-4-25-5-29-8-25-9-20-7-25-12-12-8-11-9-9-9-10-13-8-14-6-14-3-12-1-7v-25l3-15 5-14 10-19 10-15 11-16 12-17z" fill="#E7D08E"/>
<path transform="translate(218,57)" d="m0 0 3 1-6 3h-2v2l-24 16-16 13-10 10-9 11-8 10-11 17-10 21-7 20-4 15-3 17-1 11v27l2 20 6 25 8 26 5 16 4 8 8 11 10 13 9 12 2 1v2l4 2 4 5 2 7-2 7 1 2-3 1h-7l-16-10-18-13-14-12-18-18-10-13-8-13-8-16-5-17-2-15v-19l3-19 8-30 9-27 8-16 8-14 10-13 14-17 8-10 12-14 9-9 14-11 10-7 16-9z" fill="#E7D08E"/>
<path transform="translate(1702,61)" d="m0 0h16l35 3v1h-30l-30 10-15 6-27 9-19 10-12 8-12 9-11 9-13 12-17 17-7 8-10 9-33 33-9 13-6 10-2 4-1-1-18-2-39-1 1-3 10-8 22-22 7-8 22-22 8-7 8-8 8-7 10-9 11-9 17-13 18-12 19-11 23-10 27-9 26-7z" fill="#E7D08E"/>
<path transform="translate(1869,104)" d="m0 0 5 1 21 11 17 12 12 11 10 11 7 10 8 16 4 12 2 13 1 20v15l-3 16-6 16-11 25-7 12-1-2h-2l-2 4-4 6-1-2 5-12 6-19 3-17v-33l-3-20-5-19-8-20-8-16-14-21-12-14-11-11z" fill="#E7D08E"/>
<path transform="translate(1664,639)" d="m0 0h11l6 4 5 6 1 3v9l-4 6-5 4-3 1h-7l-8-4-5-6-1-3v-9l4-7z" fill="#fff"/>
<path transform="translate(370,654)" d="m0 0h8l6 3 6 7 1 3v7l-3 6-6 5-5 2-9-1-6-4-4-7v-9l3-6 6-5z" fill="#E7D08E"/>
<path transform="translate(1824,677)" d="m0 0 9 2 6 6 1 3v7l-3 5-6 4h-8l-6-3-3-5-1-8 3-6 5-4z" fill="#E7D08E"/>
<path transform="translate(1621,219)" d="m0 0h10l8 7 1 8-3 6-4 3-8 1-6-4-4-5v-10l5-5z" fill="#E7D08E"/>
<path transform="translate(500,297)" d="m0 0h21l11 3 2 4-9 4-7 1h-17l-12-3-4-4 9-4z" fill="#E7D08E"/>
<path transform="translate(1477,547)" d="m0 0 6 2 13 12 7 7 7 8 8 10 12 17 10 16 13 24 21 42 8 14v2h-2l-12-22-9-17-8-16-12-22-13-21-14-19-12-14-14-14-9-7z" fill="#F8E4B1"/>
<path transform="translate(503,593)" d="m0 0h22l10 2 4 4-6 4-6 1h-26l-12-4 4-4z" fill="#E7D08E"/>
<path transform="translate(1720,702)" d="m0 0h7l7 6 1 2v7l-5 6-2 1h-9l-5-3-2-6 1-7 5-5z" fill="#E7D08E"/>
<path transform="translate(1723,643)" d="m0 0 9 1 8 6 2 7-3 5-2 1h-7l-6-3-5-6-1-6z" fill="#E7D08E"/>
<path transform="translate(1623,167)" d="m0 0 6 1 5 4 1 9-4 6h-9l-4-4-1-3v-7l4-5z" fill="#E7D08E"/>
<path transform="translate(397,704)" d="m0 0 7 1 4 4v8l-4 4-6 1-5-2-3-6 1-6 3-3z" fill="#E7D08E"/>
<path transform="translate(330,693)" d="m0 0h7l5 5v6l-4 4-7 1-5-4-1-6 3-5z" fill="#E7D08E"/>
<path transform="translate(1547,637)" d="m0 0 4 2 21 42 10 18v2h-2l-12-22-9-17-8-16-4-7z" fill="#F5E1AC"/>
<path transform="translate(1635,674)" d="m0 0h6l3 4v6l-4 3-7-1-1-1v-8z" fill="#E7D08E"/>
<path transform="translate(1647,624)" d="m0 0 6 1 2 2v6l-4 4-6-2-1-1v-7z" fill="#E7D08E"/>
<path transform="translate(1671,134)" d="m0 0 5 1 3 5-1 6-5 1-4-2-1-7z" fill="#E7D08E"/>
<path transform="translate(357,725)" d="m0 0 5 1 2 2v7l-3 2h-5l-3-3 1-7z" fill="#E7D08E"/>
<path transform="translate(1876,573)" d="m0 0 6 1 2 2v6l-3 2-6-1-2-2v-6z" fill="#E7D08E"/>
<path transform="translate(1475,195)" d="m0 0 2 1-16 17-9 8 1 3 3 1v2h-11l6-8z" fill="#F4E0AA"/>
<path transform="translate(95,350)" d="m0 0 7 6 7 8 10 9v2l4 2 3 4-4-1-10-9-15-15-2-3z" fill="#F6E2AE"/>
<path transform="translate(577,297)" d="m0 0 5 3 1 5-4 4-5-1-2-3 1-5 1-2z" fill="#E7D08E"/>
<path transform="translate(1781,714)" d="m0 0 5 1 2 2v7l-7 1-3-4 1-5z" fill="#E7D08E"/>
<path transform="translate(314,743)" d="m0 0 4 1 1 2v6l-5 2-5-2v-7z" fill="#E7D08E"/>
<path transform="translate(464,617)" d="m0 0 5 2 1 1v5l-4 3-4-1v-2h-2v-5z" fill="#E7D08E"/>
<path transform="translate(626,335)" d="m0 0h8l1 7-2 2-7-1-2-4z" fill="#E7D08E"/>
<path transform="translate(1600,727)" d="m0 0 7 6 8 9 5 5v2l4 2 1 2-4-1-17-17-4-5z" fill="#F6E2AE"/>
<path transform="translate(503,340)" d="m0 0h5l2 3v5l-5 2-3-1-2-5z" fill="#E7D08E"/>
<path transform="translate(1691,184)" d="m0 0h5l2 2v7l-1 1h-5l-3-6z" fill="#E7D08E"/>
<path transform="translate(553,346)" d="m0 0h5l2 3-1 5-1 1h-6l-2-4z" fill="#E7D08E"/>
<path transform="translate(453,255)" d="m0 0 7 1v6l-5 2-4-2-1-4z" fill="#E7D08E"/>
<path transform="translate(115,138)" d="m0 0 2 1-11 14-8 13-1-4 12-17z" fill="#F3DFA8"/>
<path transform="translate(1529,142)" d="m0 0 2 1-16 16-8 7v-3l13-13 8-7z" fill="#F4E0A9"/>
<path transform="translate(94,167)" d="m0 0h2l-2 6-9 19-2 3v-6l8-16z" fill="#F4E0AA"/>
<path transform="translate(1419,312)" d="m0 0 5 1v7h-6l-2-5z" fill="#E7D08E"/>
<path transform="translate(84,693)" d="m0 0 2 3 8 16 3 7-3-1-9-17z" fill="#F4E0A9"/>
<path transform="translate(1569,679)" d="m0 0h2l10 19 1 3h-2l-11-20z" fill="#F3DFA8"/>
<path transform="translate(1684,240)" d="m0 0 5 1 1 5-5 1-3-1-1-3z" fill="#E7D08E"/>
<path transform="translate(93,606)" d="m0 0h2l-1 4-8 17-1-4z" fill="#F3DFA8"/>
<path transform="translate(1495,174)" d="m0 0 2 1-11 11-1 2h-2l-2 4-2 1 1-4z" fill="#F3DFA8"/>
<path transform="translate(82,332)" d="m0 0 12 15-1 2-5-5-6-9z" fill="#F4E0AA"/>
<path transform="translate(1450,221)" d="m0 0 3 3 3 1v2h-11z" fill="#FEECBE"/>
<path transform="translate(127,382)" d="m0 0 4 2 8 6-3 1-9-7z" fill="#F5E2AC"/>
<path transform="translate(109,734)" d="m0 0 7 6 3 4-4-1-6-6z" fill="#F7E3AF"/>
<path transform="translate(1547,637)" d="m0 0 4 2 3 7-1 4-6-11z" fill="#F4E0AA"/>
<path transform="translate(1448,221)" d="m0 0 2 1-4 4 8 1v1h-12l1-3z" fill="#ECD699"/>
</svg>
